<svg xmlns="http://www.w3.org/2000/svg" style="display:none">
  <symbol id="icon-changelog" viewBox="0 0 24 24">
    <path d="M14 3v4a1 1 0 0 0 1 1h4" />
  <path d="M17 21h-10a2 2 0 0 1 -2 -2v-14a2 2 0 0 1 2 -2h7l5 5v11a2 2 0 0 1 -2 2" />
  <path d="M9 9l1 0" />
  <path d="M9 13l6 0" />
  <path d="M9 17l6 0" />
  </symbol>
  <symbol id="icon-search" viewBox="0 0 24 24">
    <path d="M3 10a7 7 0 1 0 14 0a7 7 0 1 0 -14 0" />
  <path d="M21 21l-6 -6" />
  </symbol>
  <symbol id="icon-copy" viewBox="0 0 24 24">
    <path d="M7 7m0 2.667a2.667 2.667 0 0 1 2.667 -2.667h8.666a2.667 2.667 0 0 1 2.667 2.667v8.666a2.667 2.667 0 0 1 -2.667 2.667h-8.666a2.667 2.667 0 0 1 -2.667 -2.667z" />
  <path d="M4.012 16.737a2.005 2.005 0 0 1 -1.012 -1.737v-10c0 -1.1 .9 -2 2 -2h10c.75 0 1.158 .385 1.5 1" />
  </symbol>
  <symbol id="icon-settings" viewBox="0 0 24 24">
    <path d="M10.325 4.317c.426 -1.756 2.924 -1.756 3.35 0a1.724 1.724 0 0 0 2.573 1.066c1.543 -.94 3.31 .826 2.37 2.37a1.724 1.724 0 0 0 1.065 2.572c1.756 .426 1.756 2.924 0 3.35a1.724 1.724 0 0 0 -1.066 2.573c.94 1.543 -.826 3.31 -2.37 2.37a1.724 1.724 0 0 0 -2.572 1.065c-.426 1.756 -2.924 1.756 -3.35 0a1.724 1.724 0 0 0 -2.573 -1.066c-1.543 .94 -3.31 -.826 -2.37 -2.37a1.724 1.724 0 0 0 -1.065 -2.572c-1.756 -.426 -1.756 -2.924 0 -3.35a1.724 1.724 0 0 0 1.066 -2.573c-.94 -1.543 .826 -3.31 2.37 -2.37c1 .608 2.296 .07 2.572 -1.065" />
  <path d="M9 12a3 3 0 1 0 6 0a3 3 0 0 0 -6 0" />
  </symbol>
  <symbol id="icon-user" viewBox="0 0 24 24">
    <path d="M8 7a4 4 0 1 0 8 0a4 4 0 0 0 -8 0" />
  <path d="M6 21v-2a4 4 0 0 1 4 -4h4a4 4 0 0 1 4 4v2" />
  </symbol>
  <symbol id="icon-chevron-left" viewBox="0 0 24 24">
    <path d="M15 6l-6 6l6 6" />
  </symbol>
  <symbol id="icon-bookmark" viewBox="0 0 24 24">
    <path d="M18 7v14l-6 -4l-6 4v-14a4 4 0 0 1 4 -4h4a4 4 0 0 1 4 4" />
  </symbol>
  <symbol id="icon-dots-vertical" viewBox="0 0 24 24">
    <path d="M11 12a1 1 0 1 0 2 0a1 1 0 1 0 -2 0" />
  <path d="M11 19a1 1 0 1 0 2 0a1 1 0 1 0 -2 0" />
  <path d="M11 5a1 1 0 1 0 2 0a1 1 0 1 0 -2 0" />
  </symbol>
  <symbol id="icon-eye" viewBox="0 0 24 24">
    <path d="M10 12a2 2 0 1 0 4 0a2 2 0 0 0 -4 0" />
  <path d="M21 12c-2.4 4 -5.4 6 -9 6c-3.6 0 -6.6 -2 -9 -6c2.4 -4 5.4 -6 9 -6c3.6 0 6.6 2 9 6" />
  </symbol>
  <symbol id="icon-maximize" viewBox="0 0 24 24">
    <path d="M16 4l4 0l0 4" />
  <path d="M14 10l6 -6" />
  <path d="M8 20l-4 0l0 -4" />
  <path d="M4 20l6 -6" />
  <path d="M16 20l4 0l0 -4" />
  <path d="M14 14l6 6" />
  <path d="M8 4l-4 0l0 4" />
  <path d="M4 4l6 6" />
  </symbol>
  <symbol id="icon-help" viewBox="0 0 24 24">
    <path d="M3 12a9 9 0 1 0 18 0a9 9 0 1 0 -18 0" />
  <path d="M12 17l0 .01" />
  <path d="M12 13.5a1.5 1.5 0 0 1 1 -1.5a2.6 2.6 0 1 0 -3 -4" />
  </symbol>
  <symbol id="icon-book" viewBox="0 0 24 24">
    <path d="M19 4v16h-12a2 2 0 0 1 -2 -2v-12a2 2 0 0 1 2 -2h12" />
  <path d="M19 16h-12a2 2 0 0 0 -2 2" />
  <path d="M9 8h6" />
  </symbol>
  <symbol id="icon-clock" viewBox="0 0 24 24">
    <path d="M3 12a9 9 0 1 0 18 0a9 9 0 0 0 -18 0" />
  <path d="M12 7v5l3 3" />
  </symbol>
  <symbol id="icon-focus" viewBox="0 0 24 24">
    <path d="M11.5 12a.5 .5 0 1 0 1 0a.5 .5 0 1 0 -1 0" fill="currentColor" />
  <path d="M5 12a7 7 0 1 0 14 0a7 7 0 1 0 -14 0" />
  <path d="M12 3l0 2" />
  <path d="M3 12l2 0" />
  <path d="M12 19l0 2" />
  <path d="M19 12l2 0" />
  </symbol>
  <symbol id="icon-grid" viewBox="0 0 24 24">
    <path d="M4 5a1 1 0 0 1 1 -1h4a1 1 0 0 1 1 1v4a1 1 0 0 1 -1 1h-4a1 1 0 0 1 -1 -1l0 -4" />
  <path d="M14 5a1 1 0 0 1 1 -1h4a1 1 0 0 1 1 1v4a1 1 0 0 1 -1 1h-4a1 1 0 0 1 -1 -1l0 -4" />
  <path d="M4 15a1 1 0 0 1 1 -1h4a1 1 0 0 1 1 1v4a1 1 0 0 1 -1 1h-4a1 1 0 0 1 -1 -1l0 -4" />
  <path d="M14 15a1 1 0 0 1 1 -1h4a1 1 0 0 1 1 1v4a1 1 0 0 1 -1 1h-4a1 1 0 0 1 -1 -1l0 -4" />
  </symbol>
  <symbol id="icon-download" viewBox="0 0 24 24">
    <path d="M4 17v2a2 2 0 0 0 2 2h12a2 2 0 0 0 2 -2v-2" />
  <path d="M7 11l5 5l5 -5" />
  <path d="M12 4l0 12" />
  </symbol>
  <symbol id="icon-check" viewBox="0 0 24 24">
    <path d="M5 12l5 5l10 -10" />
  </symbol>
  <symbol id="icon-chevron-up" viewBox="0 0 24 24">
    <path d="M6 15l6 -6l6 6" />
  </symbol>
  <symbol id="icon-chevron-down" viewBox="0 0 24 24">
    <path d="M6 9l6 6l6 -6" />
  </symbol>
  <symbol id="icon-menu" viewBox="0 0 24 24">
    <path d="M4 6l16 0" />
  <path d="M4 12l16 0" />
  <path d="M4 18l16 0" />
  </symbol>
  <symbol id="icon-printer" viewBox="0 0 24 24">
    <path d="M17 17h2a2 2 0 0 0 2 -2v-4a2 2 0 0 0 -2 -2h-14a2 2 0 0 0 -2 2v4a2 2 0 0 0 2 2h2" />
  <path d="M17 9v-4a2 2 0 0 0 -2 -2h-6a2 2 0 0 0 -2 2v4" />
  <path d="M7 15a2 2 0 0 1 2 -2h6a2 2 0 0 1 2 2v4a2 2 0 0 1 -2 2h-6a2 2 0 0 1 -2 -2l0 -4" />
  </symbol>
  <symbol id="icon-file-text" viewBox="0 0 24 24">
    <path d="M14 3v4a1 1 0 0 0 1 1h4" />
  <path d="M17 21h-10a2 2 0 0 1 -2 -2v-14a2 2 0 0 1 2 -2h7l5 5v11a2 2 0 0 1 -2 2" />
  <path d="M9 9l1 0" />
  <path d="M9 13l6 0" />
  <path d="M9 17l6 0" />
  </symbol>
  <symbol id="icon-zoom-search" viewBox="0 0 24 24">
    <path d="M3 10a7 7 0 1 0 14 0a7 7 0 1 0 -14 0" />
  <path d="M7 10l6 0" />
  <path d="M10 7l0 6" />
  <path d="M21 21l-6 -6" />
  </symbol>
  <symbol id="icon-x" viewBox="0 0 24 24">
    <path d="M18 6l-12 12" />
  <path d="M6 6l12 12" />
  </symbol>
  <symbol id="icon-anchor" viewBox="0 0 24 24">
    <path d="M9 15l6 -6" />
  <path d="M11 6l.463 -.536a5 5 0 0 1 7.071 7.072l-.534 .464" />
  <path d="M13 18l-.397 .534a5.068 5.068 0 0 1 -7.127 0a4.972 4.972 0 0 1 0 -7.071l.524 -.463" />
  </symbol>
  <symbol id="icon-collapse-all" viewBox="0 0 24 24">
    <path d="M7 7l5 5l5 -5" />
  <path d="M7 13l5 5l5 -5" />
  </symbol>
  <symbol id="icon-expand-all" viewBox="0 0 24 24">
    <path d="M7 11l5 -5l5 5" />
  <path d="M7 17l5 -5l5 5" />
  </symbol>
</svg>
